# xmcd
#
# Track frame offsets:
#	150
#	18320
#	34011
#	49502
#	66205
#	79929
#	87599
#	101390
#	115738
#	131710
#	139386
#	145270
#	158749
#	170976
#	183613
#	190214
#	205428
#	215218
#
# Disc length: 2930 seconds
#
# Revision: 0
# Processed by: cddbd v1.5.2PL0 Copyright (c) Steve Scherf et al.
# Submitted via: EasyCDDAExtractor 12.0.1.1
#
DISCID=130b7012
DTITLE=Kurt McFarland - Food For Thought: An Inspirational Journey Of Spoken W
DTITLE=ord And Music
DYEAR=2010
DGENRE=
TTITLE0=Anything Can Happen
TTITLE1=Peace Of Mind
TTITLE2=Five Old Rockers
TTITLE3=No Bad In My Bones
TTITLE4=Dream Of Life
TTITLE5=Collection Of Thoughts (Part 1)
TTITLE6=Missing In Action
TTITLE7=There's Nothing As Good As A Prayer
TTITLE8=Passing On
TTITLE9=Collection Of Thoughts (Part 2)
TTITLE10=With God On Your Side
TTITLE11=For Ole Bill
TTITLE12=Storm Just Beyond The Horizon
TTITLE13=Frosty Morning
TTITLE14=Slave
TTITLE15=Chances
TTITLE16=Mothers And Children
TTITLE17=The Gatekeeper
EXTD=
EXTT0=
EXTT1=
EXTT2=
EXTT3=
EXTT4=
EXTT5=
EXTT6=
EXTT7=
EXTT8=
EXTT9=
EXTT10=
EXTT11=
EXTT12=
EXTT13=
EXTT14=
EXTT15=
EXTT16=
EXTT17=
PLAYORDER=
